<svg width="64" height="64" viewBox="0 0 64 64" xmlns="http://www.w3.org/2000/svg"><path fill="#fff" d="M48 10.667q1.104 0 1.885.78t.78 1.886-.79 1.896L33.102 32l16.77 16.77q.793.793.793 1.897t-.78 1.885-1.886.78q-1.125 0-1.896-.77L27.437 33.895q-.77-.77-.77-1.896t.77-1.897l18.667-18.667q.77-.77 1.896-.77zm-16 0q1.104 0 1.885.78t.78 1.886-.79 1.896L17.102 32l16.77 16.77q.793.793.793 1.897t-.78 1.885-1.886.78q-1.125 0-1.896-.77L11.437 33.895q-.77-.77-.77-1.896t.77-1.897l18.667-18.667q.77-.77 1.896-.77z"/></svg>