<svg id="arrow" width="64" height="64" viewBox="0 0 64 64" version="1.1" xmlns="http://www.w3.org/2000/svg" xmlns:xlink="http://www.w3.org/1999/xlink">
    <path fill="#fff" id="arrow-left-5" d="M48 10.667q1.104 0 1.885 0.781t0.781 1.885-0.792 1.896l-16.771 16.771 16.771 16.771q0.792 0.792 0.792 1.896t-0.781 1.885-1.885 0.781q-1.125 0-1.896-0.771l-18.667-18.667q-0.771-0.771-0.771-1.896t0.771-1.896l18.667-18.667q0.771-0.771 1.896-0.771zM32 10.667q1.104 0 1.885 0.781t0.781 1.885-0.792 1.896l-16.771 16.771 16.771 16.771q0.792 0.792 0.792 1.896t-0.781 1.885-1.885 0.781q-1.125 0-1.896-0.771l-18.667-18.667q-0.771-0.771-0.771-1.896t0.771-1.896l18.667-18.667q0.771-0.771 1.896-0.771z"></path>
</svg>
